<svg
  width="120"
  height="120"
  viewBox="0 0 120 120"
  fill="none"
  xmlns="http://www.w3.org/2000/svg"
>
  <rect width="120" height="120" rx="22" fill="#F5F6FF" />
  <g transform="translate(23 22) scale(2.9)">
    <path
      fill-rule="evenodd"
      clip-rule="evenodd"
      d="M14.7636 0.71869C13.2456 -0.157823 11.3754 -0.157823 9.85732 0.71869L2.64373 4.88353C1.12562 5.76005 0.19043 7.37943 0.19043 9.13181V17.4615C0.19043 19.2139 1.12562 20.8333 2.64373 21.7098L9.85732 25.8746C11.3754 26.7512 13.2456 26.7512 14.7636 25.8746L21.9772 21.7098C23.4953 20.8333 24.4305 19.2139 24.4305 17.4615V9.13181C24.4305 7.37943 23.4953 5.76005 21.9772 4.88353L14.7636 0.71869ZM11.0854 2.8421C11.8444 2.40384 12.7795 2.40384 13.5385 2.8421L20.5043 6.86484C20.4508 6.88524 20.3958 6.90593 20.3396 6.92686C19.2699 7.32518 17.736 7.80699 15.8979 8.13417C12.5472 8.73085 8.2518 8.80334 3.90432 6.98345L11.0854 2.8421ZM2.64373 9.37591V17.4615C2.64373 18.3379 3.11132 19.1476 3.87037 19.5858L10.915 23.6533C11.062 18.119 12.5007 14.3179 14.6097 11.6071C14.7802 11.388 14.9544 11.1768 15.1319 10.9735C11.5695 11.441 7.14129 11.3086 2.64373 9.37591ZM13.6076 23.7148L20.7093 19.5858C21.4684 19.1476 21.936 18.3379 21.936 17.4615V9.21317C20.0398 10.1559 18.1751 11.3584 16.6846 13.2767C15.0018 15.4409 13.6957 18.6514 13.6076 23.7148Z"
      fill="url(#databar_ai_mark)"
    />
  </g>
  <defs>
    <linearGradient
      id="databar_ai_mark"
      x1="24.4305"
      y1="19.9272"
      x2="-1.45023"
      y2="16.5254"
      gradientUnits="userSpaceOnUse"
    >
      <stop stop-color="#18172D" />
      <stop offset="1" stop-color="#353551" />
    </linearGradient>
  </defs>
</svg>
