<svg width="120" height="120" viewBox="0 0 120 120" fill="none" xmlns="http://www.w3.org/2000/svg">
  <rect width="120" height="120" rx="18" fill="#FFFFFF"/>
  <path d="M33.057 11.019C29.9804 11.019 27.0122 12.1033 24.6493 14.0776L29.1807 18.6542C30.3237 17.8455 31.652 17.4118 33.057 17.4118C36.7842 17.4118 39.8157 20.4432 39.8157 24.1704C39.8157 27.8977 36.7842 30.9291 33.057 30.9291C29.3298 30.9291 26.2983 27.8977 26.2983 24.1704C26.2983 22.7518 26.7411 21.392 27.5769 20.2309L27.6718 20.0999L22.4265 14.8592C19.9417 12.3834 16.6482 11.019 13.1469 11.019C5.9003 11.019 0 16.9193 0 24.1704C0 31.4216 5.9003 37.3219 13.1514 37.3219C16.2281 37.3219 19.1918 36.2376 21.5546 34.2678L17.0232 29.6912C15.8802 30.4999 14.552 30.9291 13.1514 30.9291C9.42421 30.9291 6.39274 27.8977 6.39274 24.1704C6.39274 20.4432 9.42421 17.4118 13.1514 17.4118C16.8786 17.4118 19.9101 20.4432 19.9101 24.1704C19.9101 25.589 19.4674 26.9489 18.6316 28.11L18.5367 28.241L22.9325 32.6369L23.7638 33.4591C26.2486 35.9484 29.5512 37.3173 33.0615 37.3173C40.3127 37.3173 46.213 31.4171 46.213 24.1659C46.213 16.9148 40.3127 11.0145 33.0615 11.0145" fill="#080405" transform="translate(15 13) scale(1.95)"/>
</svg>
